<?xml version="1.0" encoding="utf-8"?>
<!-- Generator: Adobe Illustrator 24.1.1, SVG Export Plug-In . SVG Version: 6.00 Build 0)  -->
<svg version="1.1" id="Layer_1" xmlns="http://www.w3.org/2000/svg" xmlns:xlink="http://www.w3.org/1999/xlink" x="0px" y="0px"
	 viewBox="0 0 366.9 227.1" enable-background="new 0 0 366.9 227.1" xml:space="preserve">
<g>
	<path fill="#606060" d="M250.5,69c-18.2-21.2-23.2-52.1-119.6-33.9C103.7,40.2,70.4,54.9,54.3,67c-4.1,3.1-7.6,6.6-10.8,10.4
		c2.8,4.5,7,12.7,7.3,21.1c0.4,12.5,21.8,14.1,21.8,14.1s5.7,3.1,6.3,16.9c0,0-6.2,16.7-3.6,21c0,0-3.3,14.1-23,18.7
		c1.8,0.5,3.6,1.1,5.5,1.6c67.5,20.2,97.4,8,148.7-2.5c17.3-3.6,48.2-41.8,48.2-41.8s2.7-3.6,14.2-6.7c10.3-4.7,17.1-13,17.1-22.4
		c0-11.5-10.2-21.4-24.4-25c-0.3,0-0.6-0.1-0.8-0.1C256.4,72.2,252.6,71.3,250.5,69z"/>
	<path fill="#606060" d="M352.3,135.7c14.9-2.1,14.9-8.4,14.6-13.3c-1.2-19.1-6-57-9.4-75.9c-0.6-3.1-1.6-7.5-4-11.3
		c-3.1-4.8-8.6-8.6-18.4-7.2c-17.5,2.5-28.2,17.6-47.7,35.8c-3.9,3.7-16.4,8.2-26.1,8.4c14.3,3.6,24.6,13.4,24.6,25.1
		c0,9.5-6.8,17.7-17.1,22.4c3.2-0.8,7-1.6,11.6-2.3C301.8,114.5,337.4,137.8,352.3,135.7z"/>
	<path fill="#606060" d="M72.6,112.6c0,0-21.3-1.6-21.8-14.1c-0.3-8.3-4.5-16.5-7.3-21.1c-0.7,0.9-1.5,1.8-2.2,2.7
		c-9.1,11.8-15.1,25.5-21.8,34.7c-22.6,30.9-19.3,26.5-19.3,26.5l19.2,5.2l-18.2,1.9c0,0-9.4,1.9,43.5,18.4c2.4,0.7,4.9,1.5,7.6,2.3
		c19.7-4.5,23-18.7,23-18.7c-2.6-4.3,3.6-21,3.6-21C78.4,115.7,72.6,112.6,72.6,112.6z"/>
	<path fill="#333333" d="M125.7,114c-0.6,0.1-1.2,0.2-1.9,0.4c9.9-1.2,18.4,1.6,19.2,6.7c0.9,5.1-6.1,10.6-15.9,12.8
		c0.6-0.1,1.2-0.2,1.9-0.3c10.7-1.9,18.7-7.7,17.7-13.1C145.9,115,136.4,112.1,125.7,114z"/>
	<path fill="#333333" d="M108.7,98c-0.6,0.1-1.2,0.2-1.9,0.4c9.9-1.2,18.4,1.6,19.2,6.7c0.9,5.1-6.1,10.6-15.9,12.8
		c0.6-0.1,1.2-0.2,1.9-0.3c10.7-1.9,18.7-7.7,17.7-13.1C128.9,99,119.4,96.1,108.7,98z"/>
	<path fill="#333333" d="M193.7,78c-0.6,0.1-1.2,0.2-1.9,0.4c9.9-1.2,18.4,1.6,19.2,6.7c0.9,5.1-6.1,10.6-15.9,12.8
		c0.6-0.1,1.2-0.2,1.9-0.3c10.7-1.9,18.7-7.7,17.7-13.1C213.9,79,204.4,76.1,193.7,78z"/>
	<path fill="#333333" d="M212.7,92c-0.6,0.1-1.2,0.2-1.9,0.4c9.9-1.2,18.4,1.6,19.2,6.7c0.9,5.1-6.1,10.6-15.9,12.8
		c0.6-0.1,1.2-0.2,1.9-0.3c10.7-1.9,18.7-7.7,17.7-13.1C232.9,93,223.4,90.1,212.7,92z"/>
	<path fill="#333333" d="M200.7,110c-0.6,0.1-1.2,0.2-1.9,0.4c9.9-1.2,18.4,1.6,19.2,6.7c0.9,5.1-6.1,10.6-15.9,12.8
		c0.6-0.1,1.2-0.2,1.9-0.3c10.7-1.9,18.7-7.7,17.7-13.1C220.9,111,211.4,108.1,200.7,110z"/>
	<path fill="#333333" d="M212.7,63c-0.6,0.1-1.2,0.2-1.9,0.4c9.9-1.2,18.4,1.6,19.2,6.7c0.9,5.1-6.1,10.6-15.9,12.8
		c0.6-0.1,1.2-0.2,1.9-0.3c10.7-1.9,18.7-7.7,17.7-13.1C232.9,64,223.4,61.1,212.7,63z"/>
	<path fill="#333333" d="M230.7,78c-0.6,0.1-1.2,0.2-1.9,0.4c9.9-1.2,18.4,1.6,19.2,6.7c0.9,5.1-6.1,10.6-15.9,12.8
		c0.6-0.1,1.2-0.2,1.9-0.3c10.7-1.9,18.7-7.7,17.7-13.1C250.9,79,241.4,76.1,230.7,78z"/>
	<path fill="#333333" d="M125.7,88c-0.6,0.1-1.2,0.2-1.9,0.4c9.9-1.2,18.4,1.6,19.2,6.7c0.9,5.1-6.1,10.6-15.9,12.8
		c0.6-0.1,1.2-0.2,1.9-0.3c10.7-1.9,18.7-7.7,17.7-13.1C145.9,89,136.4,86.1,125.7,88z"/>
	<path fill="#333333" d="M145.7,100c-0.6,0.1-1.2,0.2-1.9,0.4c9.9-1.2,18.4,1.6,19.2,6.7c0.9,5.1-6.1,10.6-15.9,12.8
		c0.6-0.1,1.2-0.2,1.9-0.3c10.7-1.9,18.7-7.7,17.7-13.1C165.9,101,156.4,98.1,145.7,100z"/>
	<path fill="#333333" d="M145.7,42c-0.6,0.1-1.2,0.2-1.9,0.4c9.9-1.2,18.4,1.6,19.2,6.7c0.9,5.1-6.1,10.6-15.9,12.8
		c0.6-0.1,1.2-0.2,1.9-0.3c10.7-1.9,18.7-7.7,17.7-13.1C165.9,43,156.4,40.1,145.7,42z"/>
	<path fill="#333333" d="M164.7,55c-0.6,0.1-1.2,0.2-1.9,0.4c9.9-1.2,18.4,1.6,19.2,6.7c0.9,5.1-6.1,10.6-15.9,12.8
		c0.6-0.1,1.2-0.2,1.9-0.3c10.7-1.9,18.7-7.7,17.7-13.1C184.9,56,175.4,53.1,164.7,55z"/>
	<path fill="#333333" d="M145.2,126c-0.6,0.1-1.2,0.2-1.9,0.4c9.9-1.2,18.4,1.6,19.2,6.7c0.9,5.1-6.1,10.6-15.9,12.8
		c0.6-0.1,1.2-0.2,1.9-0.3c10.7-1.9,18.7-7.7,17.7-13.1C165.4,127,156,124.1,145.2,126z"/>
	<path fill="#333333" d="M114.2,134.4c-0.6,0.1-1.2,0.2-1.9,0.4c9.9-1.2,18.4,1.6,19.2,6.7s-6.1,10.6-15.9,12.8
		c0.6-0.1,1.2-0.2,1.9-0.3c10.7-1.9,18.7-7.7,17.7-13.1C134.4,135.4,125,132.5,114.2,134.4z"/>
	<path fill="#606060" d="M75.5,142.5c0,0,15.2,27.9,104.5,20.4c0,0-12.2-6.3-9.8-13.3s16.4-11.5-29.8-11.2L75.5,142.5z"/>
	<path fill="#606060" d="M104.9,180.4c6,14.4,23.7,45.4,64.4,46.7c0,0-8.5-13.3-8.2-25.2c0.3-10.5,6.3-16.2-11.3-22.3
		C135.8,181.5,121.4,182.1,104.9,180.4z"/>
	<path fill="#606060" d="M288.3,133.2c-8.2-16-20-11-20-11s-7.8,5-13.3,3.9c-0.2,0.2-0.3,0.4-0.3,0.4s-28,34.6-45.6,41l5.4,8.6
		l1.8-0.9l11.5,6.9l1.5-3.5l12.3,2.9l0.9-2.8L259,179l-1.8-3.1c0,0,13.5,6.7,32.1-6.5s8.4-10.4,22.3-15
		C311.7,154.3,296.5,149.2,288.3,133.2z"/>
	<circle opacity="0.3" fill="#FFFFFF" enable-background="new    " cx="31.5" cy="124.7" r="6.9"/>
	<path fill="#606060" d="M250.5,69C250.6,69,250.6,69,250.5,69c6.8-0.9,24.7-5,29.5-20c5.9-18.7,24.1-39.7,24.1-39.7l-37.7-0.6
		l0.5-1.4l-15.5,2.2l0.5-1.4l-17.5,2.5l1-2.1L223,9.6l0.5-1.4l-12.7-0.9l1.1-1.5l-12-0.9l1.1-1.5h-13.9l1.1-1.5l-15,1.5l1.6-2.9
		l-16.6,3.7l0.7-4.1l-12.7,3.8L145.7,0l-11.8,5l-0.5-3.2l-10.6,4.1l-0.4-2.6l-12.9,6.4l-0.4-2.6c-10.1,3.4-11.5,7.6-11.5,7.6
		l-1.7-2.4c-8.1,3.1-10.1,8-10.1,8L84,17.2C80.9,19,78,26,78,26l-0.4-2.6l-6.1,8.1l0.4,2.6c-0.6,0.7-1.6-1.8-1.6-1.8l-2.4,6.3
		c4,14.6-3,11.6-3,11.6l4.8,7c17.4-9.3,40.9-18.4,61-22.2C227.3,16.8,232.4,47.8,250.5,69z"/>
</g>
<g opacity="0.5">
	
		<linearGradient id="SVGID_1_" gradientUnits="userSpaceOnUse" x1="120.6743" y1="372.3312" x2="197.7947" y2="-65.0406" gradientTransform="matrix(1 0 0 -1 0 230.0412)">
		<stop  offset="9.855147e-02" style="stop-color:#000000"/>
		<stop  offset="0.3551" style="stop-color:#051521"/>
		<stop  offset="0.9167" style="stop-color:#104A73"/>
		<stop  offset="1" style="stop-color:#125280"/>
	</linearGradient>
	<path fill="url(#SVGID_1_)" d="M250.5,69c-18.2-21.2-23.2-52.1-119.6-33.9C103.7,40.2,70.4,54.9,54.3,67
		c-4.1,3.1-7.6,6.6-10.8,10.4c2.8,4.5,7,12.7,7.3,21.1c0.4,12.5,21.8,14.1,21.8,14.1s5.7,3.1,6.3,16.9c0,0-6.2,16.7-3.6,21
		c0,0-3.3,14.1-23,18.7c1.8,0.5,3.6,1.1,5.5,1.6c67.5,20.2,97.4,8,148.7-2.5c17.3-3.6,48.2-41.8,48.2-41.8s2.7-3.6,14.2-6.7
		c10.3-4.7,17.1-13,17.1-22.4c0-11.5-10.2-21.4-24.4-25c-0.3,0-0.6-0.1-0.8-0.1C256.4,72.2,252.6,71.3,250.5,69z"/>
	
		<linearGradient id="SVGID_2_" gradientUnits="userSpaceOnUse" x1="261.2686" y1="148.2711" x2="366.9385" y2="148.2711" gradientTransform="matrix(1 0 0 -1 0 230.0412)">
		<stop  offset="0" style="stop-color:#000000"/>
		<stop  offset="0.7439" style="stop-color:#0D3C5E"/>
		<stop  offset="1" style="stop-color:#125280"/>
	</linearGradient>
	<path fill="url(#SVGID_2_)" d="M352.3,135.7c14.9-2.1,14.9-8.4,14.6-13.3c-1.2-19.1-6-57-9.4-75.9c-0.6-3.1-1.6-7.5-4-11.3
		c-3.1-4.8-8.6-8.6-18.4-7.2c-17.5,2.5-28.2,17.6-47.7,35.8c-3.9,3.7-16.4,8.2-26.1,8.4c14.3,3.6,24.6,13.4,24.6,25.1
		c0,9.5-6.8,17.7-17.1,22.4c3.2-0.8,7-1.6,11.6-2.3C301.8,114.5,337.4,137.8,352.3,135.7z"/>
	
		<linearGradient id="SVGID_3_" gradientUnits="userSpaceOnUse" x1="39.4343" y1="217.3486" x2="39.4343" y2="-64.4253" gradientTransform="matrix(1 0 0 -1 0 230.0412)">
		<stop  offset="0" style="stop-color:#000000"/>
		<stop  offset="0.1308" style="stop-color:#02080C"/>
		<stop  offset="0.3663" style="stop-color:#061C2B"/>
		<stop  offset="0.677" style="stop-color:#0D3C5E"/>
		<stop  offset="0.8666" style="stop-color:#125280"/>
	</linearGradient>
	<path fill="url(#SVGID_3_)" d="M72.6,112.6c0,0-21.3-1.6-21.8-14.1c-0.3-8.3-4.5-16.5-7.3-21.1c-0.7,0.9-1.5,1.8-2.2,2.7
		c-9.1,11.8-15.1,25.5-21.8,34.7c-22.6,30.9-19.3,26.5-19.3,26.5l19.2,5.2l-18.2,1.9c0,0-9.4,1.9,43.5,18.4c2.4,0.7,4.9,1.5,7.6,2.3
		c19.7-4.5,23-18.7,23-18.7c-2.6-4.3,3.6-21,3.6-21C78.4,115.7,72.6,112.6,72.6,112.6z"/>
	<path fill="#333333" d="M125.7,114c-0.6,0.1-1.2,0.2-1.9,0.4c9.9-1.2,18.4,1.6,19.2,6.7c0.9,5.1-6.1,10.6-15.9,12.8
		c0.6-0.1,1.2-0.2,1.9-0.3c10.7-1.9,18.7-7.7,17.7-13.1C145.9,115,136.4,112.1,125.7,114z"/>
	<path fill="#333333" d="M108.7,98c-0.6,0.1-1.2,0.2-1.9,0.4c9.9-1.2,18.4,1.6,19.2,6.7c0.9,5.1-6.1,10.6-15.9,12.8
		c0.6-0.1,1.2-0.2,1.9-0.3c10.7-1.9,18.7-7.7,17.7-13.1C128.9,99,119.4,96.1,108.7,98z"/>
	<path fill="#333333" d="M193.7,78c-0.6,0.1-1.2,0.2-1.9,0.4c9.9-1.2,18.4,1.6,19.2,6.7c0.9,5.1-6.1,10.6-15.9,12.8
		c0.6-0.1,1.2-0.2,1.9-0.3c10.7-1.9,18.7-7.7,17.7-13.1C213.9,79,204.4,76.1,193.7,78z"/>
	<path fill="#333333" d="M212.7,92c-0.6,0.1-1.2,0.2-1.9,0.4c9.9-1.2,18.4,1.6,19.2,6.7c0.9,5.1-6.1,10.6-15.9,12.8
		c0.6-0.1,1.2-0.2,1.9-0.3c10.7-1.9,18.7-7.7,17.7-13.1C232.9,93,223.4,90.1,212.7,92z"/>
	<path fill="#333333" d="M200.7,110c-0.6,0.1-1.2,0.2-1.9,0.4c9.9-1.2,18.4,1.6,19.2,6.7c0.9,5.1-6.1,10.6-15.9,12.8
		c0.6-0.1,1.2-0.2,1.9-0.3c10.7-1.9,18.7-7.7,17.7-13.1C220.9,111,211.4,108.1,200.7,110z"/>
	<path fill="#333333" d="M212.7,63c-0.6,0.1-1.2,0.2-1.9,0.4c9.9-1.2,18.4,1.6,19.2,6.7c0.9,5.1-6.1,10.6-15.9,12.8
		c0.6-0.1,1.2-0.2,1.9-0.3c10.7-1.9,18.7-7.7,17.7-13.1C232.9,64,223.4,61.1,212.7,63z"/>
	<path fill="#333333" d="M230.7,78c-0.6,0.1-1.2,0.2-1.9,0.4c9.9-1.2,18.4,1.6,19.2,6.7c0.9,5.1-6.1,10.6-15.9,12.8
		c0.6-0.1,1.2-0.2,1.9-0.3c10.7-1.9,18.7-7.7,17.7-13.1C250.9,79,241.4,76.1,230.7,78z"/>
	<path fill="#333333" d="M125.7,88c-0.6,0.1-1.2,0.2-1.9,0.4c9.9-1.2,18.4,1.6,19.2,6.7c0.9,5.1-6.1,10.6-15.9,12.8
		c0.6-0.1,1.2-0.2,1.9-0.3c10.7-1.9,18.7-7.7,17.7-13.1C145.9,89,136.4,86.1,125.7,88z"/>
	<path fill="#333333" d="M145.7,100c-0.6,0.1-1.2,0.2-1.9,0.4c9.9-1.2,18.4,1.6,19.2,6.7c0.9,5.1-6.1,10.6-15.9,12.8
		c0.6-0.1,1.2-0.2,1.9-0.3c10.7-1.9,18.7-7.7,17.7-13.1C165.9,101,156.4,98.1,145.7,100z"/>
	<path fill="#333333" d="M145.7,42c-0.6,0.1-1.2,0.2-1.9,0.4c9.9-1.2,18.4,1.6,19.2,6.7c0.9,5.1-6.1,10.6-15.9,12.8
		c0.6-0.1,1.2-0.2,1.9-0.3c10.7-1.9,18.7-7.7,17.7-13.1C165.9,43,156.4,40.1,145.7,42z"/>
	<path fill="#333333" d="M164.7,55c-0.6,0.1-1.2,0.2-1.9,0.4c9.9-1.2,18.4,1.6,19.2,6.7c0.9,5.1-6.1,10.6-15.9,12.8
		c0.6-0.1,1.2-0.2,1.9-0.3c10.7-1.9,18.7-7.7,17.7-13.1C184.9,56,175.4,53.1,164.7,55z"/>
	<path fill="#333333" d="M145.2,126c-0.6,0.1-1.2,0.2-1.9,0.4c9.9-1.2,18.4,1.6,19.2,6.7c0.9,5.1-6.1,10.6-15.9,12.8
		c0.6-0.1,1.2-0.2,1.9-0.3c10.7-1.9,18.7-7.7,17.7-13.1C165.4,127,156,124.1,145.2,126z"/>
	<path fill="#333333" d="M114.2,134.4c-0.6,0.1-1.2,0.2-1.9,0.4c9.9-1.2,18.4,1.6,19.2,6.7s-6.1,10.6-15.9,12.8
		c0.6-0.1,1.2-0.2,1.9-0.3c10.7-1.9,18.7-7.7,17.7-13.1C134.4,135.4,125,132.5,114.2,134.4z"/>
	
		<linearGradient id="SVGID_4_" gradientUnits="userSpaceOnUse" x1="75.4686" y1="78.7581" x2="179.9686" y2="78.7581" gradientTransform="matrix(1 0 0 -1 0 230.0412)">
		<stop  offset="0" style="stop-color:#000000"/>
		<stop  offset="0.155" style="stop-color:#04121D"/>
		<stop  offset="0.4193" style="stop-color:#0A2E47"/>
		<stop  offset="0.6576" style="stop-color:#0E4266"/>
		<stop  offset="0.8592" style="stop-color:#114E79"/>
		<stop  offset="1" style="stop-color:#125280"/>
	</linearGradient>
	<path opacity="0.7" fill="url(#SVGID_4_)" enable-background="new    " d="M75.5,142.5c0,0,15.2,27.9,104.5,20.4
		c0,0-12.2-6.3-9.8-13.3s16.4-11.5-29.8-11.2L75.5,142.5z"/>
	
		<linearGradient id="SVGID_5_" gradientUnits="userSpaceOnUse" x1="104.8686" y1="26.6912" x2="169.2686" y2="26.6912" gradientTransform="matrix(1 0 0 -1 0 230.0412)">
		<stop  offset="0" style="stop-color:#000000"/>
		<stop  offset="0.7439" style="stop-color:#0D3C5E"/>
		<stop  offset="1" style="stop-color:#125280"/>
	</linearGradient>
	<path fill="url(#SVGID_5_)" d="M104.9,180.4c6,14.4,23.7,45.4,64.4,46.7c0,0-8.5-13.3-8.2-25.2c0.3-10.5,6.3-16.2-11.3-22.3
		C135.8,181.5,121.4,182.1,104.9,180.4z"/>
	
		<linearGradient id="SVGID_6_" gradientUnits="userSpaceOnUse" x1="209.0686" y1="78.261" x2="311.6796" y2="78.261" gradientTransform="matrix(1 0 0 -1 0 230.0412)">
		<stop  offset="0" style="stop-color:#000000"/>
		<stop  offset="0.7439" style="stop-color:#0D3C5E"/>
		<stop  offset="1" style="stop-color:#125280"/>
	</linearGradient>
	<path fill="url(#SVGID_6_)" d="M288.3,133.2c-8.2-16-20-11-20-11s-7.8,5-13.3,3.9c-0.2,0.2-0.3,0.4-0.3,0.4s-28,34.6-45.6,41
		l5.4,8.6l1.8-0.9l11.5,6.9l1.5-3.5l12.3,2.9l0.9-2.8L259,179l-1.8-3.1c0,0,13.5,6.7,32.1-6.5s8.4-10.4,22.3-15
		C311.7,154.3,296.5,149.2,288.3,133.2z"/>
	<circle fill="#1A1A1A" cx="31.5" cy="124.7" r="6.9"/>
	
		<radialGradient id="SVGID_7_" cx="142.5381" cy="-584.6871" r="258.0479" gradientTransform="matrix(1 0 0 -0.6692 0 -266.6965)" gradientUnits="userSpaceOnUse">
		<stop  offset="0" style="stop-color:#000000"/>
		<stop  offset="0.3386" style="stop-color:#061D2C"/>
		<stop  offset="1" style="stop-color:#125280"/>
	</radialGradient>
	<path fill="url(#SVGID_7_)" d="M250.5,69C250.6,69,250.6,69,250.5,69c6.8-0.9,24.7-5,29.5-20c5.9-18.7,24.1-39.7,24.1-39.7
		l-37.7-0.6l0.5-1.4l-15.5,2.2l0.5-1.4l-17.5,2.5l1-2.1L223,9.6l0.5-1.4l-12.7-0.9l1.1-1.5l-12-0.9l1.1-1.5h-13.9l1.1-1.5l-15,1.5
		l1.6-2.9l-16.6,3.7l0.7-4.1l-12.7,3.8L145.7,0l-11.8,5l-0.5-3.2l-10.6,4.1l-0.4-2.6l-12.9,6.4l-0.4-2.6
		c-10.1,3.4-11.5,7.6-11.5,7.6l-1.7-2.4c-8.1,3.1-10.1,8-10.1,8L84,17.2C80.9,19,78,26,78,26l-0.4-2.6l-6.1,8.1l0.4,2.6
		c-0.6,0.7-1.6-1.8-1.6-1.8l-2.4,6.3c4,14.6-3,11.6-3,11.6l4.8,7c17.4-9.3,40.9-18.4,61-22.2C227.3,16.8,232.4,47.8,250.5,69z"/>
</g>
</svg>
