<?xml version="1.0" encoding="utf-8"?>
<!-- Generator: Adobe Illustrator 24.1.2, SVG Export Plug-In . SVG Version: 6.00 Build 0)  -->
<svg version="1.1" id="Layer_1" xmlns="http://www.w3.org/2000/svg" xmlns:xlink="http://www.w3.org/1999/xlink" x="0px" y="0px"
	 viewBox="0 0 1243.4 1243.4" enable-background="new 0 0 1243.4 1243.4" xml:space="preserve">
<circle fill="#3C3845" cx="621.7" cy="621.7" r="621.7"/>
<path fill="#FFFFEB" d="M1111.6,458.4c-16.9-50.7-41.6-98.4-73.3-141.7c-31.4-42.8-69-80.4-111.7-111.7
	c-88.9-65.1-194.3-99.6-304.8-99.6c-110.5,0-216,34.4-304.8,99.6c-42.8,31.4-80.4,68.9-111.7,111.7c-31.7,43.3-56.4,91-73.3,141.7
	c-0.7,2,0.1,4.3,1.9,5.4c2.6,1.6,4.8,3.4,7,5.2c5.6,4.6,10.1,8.2,19.8,8.2c9.7,0,14.2-3.6,19.8-8.2c6.1-4.9,13-10.5,26.3-10.5
	s20.2,5.6,26.3,10.5c5.6,4.6,10.1,8.2,19.8,8.2c9.7,0,14.2-3.6,19.8-8.2c6.1-4.9,13-10.5,26.3-10.5c13.4,0,20.2,5.6,26.3,10.5
	c5.6,4.6,10.1,8.2,19.8,8.2c9.7,0,14.2-3.6,19.8-8.2c6.1-4.9,13-10.5,26.3-10.5c13.4,0,20.2,5.6,26.3,10.5
	c5.6,4.6,10.1,8.2,19.8,8.2c9.7,0,14.2-3.6,19.8-8.2c6.1-4.9,13-10.5,26.3-10.5c13.4,0,20.2,5.6,26.3,10.5
	c5.6,4.6,10.1,8.2,19.8,8.2c9.7,0,14.2-3.6,19.8-8.2c6.1-4.9,13-10.5,26.3-10.5s20.2,5.6,26.3,10.5c5.6,4.6,10.1,8.2,19.8,8.2
	s14.2-3.6,19.8-8.2c6.1-4.9,13-10.5,26.3-10.5c13.4,0,20.2,5.6,26.3,10.5c5.6,4.6,10.1,8.2,19.8,8.2c9.7,0,14.2-3.6,19.8-8.2
	c6.1-4.9,13-10.5,26.3-10.5c13.4,0,20.2,5.6,26.3,10.5c5.6,4.6,10.1,8.2,19.8,8.2c9.7,0,14.2-3.6,19.8-8.2
	c6.1-4.9,13-10.5,26.3-10.5c13.4,0,20.2,5.6,26.3,10.5c5.6,4.6,10.1,8.2,19.8,8.2c9.7,0,14.2-3.6,19.8-8.2
	c6.1-4.9,13-10.5,26.3-10.5s20.2,5.6,26.3,10.5c5.6,4.6,10.1,8.2,19.8,8.2s14.2-3.6,19.8-8.2c6.1-4.9,13-10.5,26.3-10.5
	c13.4,0,20.2,5.6,26.3,10.5c5.6,4.6,10.1,8.2,19.8,8.2c9.7,0,14.2-3.6,19.8-8.2c2.1-1.7,4.4-3.5,7-5.2
	C1111.5,462.7,1112.3,460.5,1111.6,458.4z"/>
<circle fill="none" stroke="#FFFFEB" stroke-width="32" stroke-miterlimit="10" cx="621.7" cy="621.7" r="566.1"/>
<g>
	
		<path fill="#3C3845" stroke="#FFFFEB" stroke-width="9.0579" stroke-linecap="round" stroke-linejoin="round" stroke-miterlimit="10" d="
		M290.7,314c-0.8-5.1,0.5-10,3.2-14c1.7-2.6,2.5-5.8,1.9-8.8c0-0.2-0.1-0.4-0.1-0.6c-1.3-9.1,3.7-17.7,11.7-21.2
		c2.7-1.2,4.8-3.4,6-6.1c2.6-6.1,8.3-10.8,15.4-11.8c7.1-1.1,13.8,1.8,18.1,6.9c1.9,2.3,4.6,3.8,7.5,4.1c8.7,1,16,7.8,17.4,16.9
		c0,0.2,0.1,0.4,0.1,0.7c0.4,3.1,2,5.9,4.4,7.9c3.7,3,6.3,7.4,7.1,12.5c0.7,4.7-0.3,9.2-2.5,13c-1.3,2.3-1.8,4.9-1.4,7.5
		c0,0.1,0,0.1,0,0.2c4.3,29.2-7.7,57-29.3,74.2c-25.6-10.1-45.2-33.3-49.6-62.5c0,0,0,0,0,0c-0.4-2.6-1.6-5.1-3.6-6.9
		C293.7,322.8,291.4,318.8,290.7,314z"/>
	<g>
		
			<path fill="#3C3845" stroke="#FFFFEB" stroke-width="9.0579" stroke-linecap="round" stroke-linejoin="round" stroke-miterlimit="10" d="
			M689.4,237.7c0.5-7.2-1.7-14-5.8-19.2c-2.7-3.4-4.1-7.8-3.6-12.1c0-0.3,0.1-0.6,0.1-0.9c1-12.8-7-24.3-18.5-28.4
			c-3.9-1.4-7.1-4.2-9-7.9c-4.3-8.3-12.7-14.2-22.7-14.9c-10-0.7-19.1,3.9-24.6,11.4c-2.4,3.3-6,5.7-10,6.5
			c-12.1,2.3-21.6,12.5-22.5,25.3c0,0.3,0,0.6-0.1,0.9c-0.2,4.4-2.2,8.4-5.3,11.5c-4.9,4.6-8.1,11-8.6,18.1
			c-0.5,6.6,1.4,12.8,4.8,17.9c2.1,3,3,6.7,2.7,10.4c0,0.1,0,0.2,0,0.3c-3.1,41.2,16.7,78.9,48.5,100.6
			c34.7-16.8,59.8-51.1,62.8-92.3c0,0,0,0,0-0.1c0.3-3.7,1.7-7.2,4.3-9.9C686.1,250.3,688.9,244.4,689.4,237.7z"/>
		
			<path fill="#3C3845" stroke="#FFFFEB" stroke-width="9.0579" stroke-linecap="round" stroke-linejoin="round" stroke-miterlimit="10" d="
			M654.1,244.9c-3.1-8.4-9.1-15-16.5-18.8c-4.8-2.5-8.6-6.7-10.3-11.9c-0.1-0.4-0.2-0.7-0.4-1.1c-5.5-15.1-20.3-24-35.6-22.7
			c-5.1,0.4-10.2-1.2-14.2-4.4c-9.1-7.2-21.7-9.6-33.4-5.4c-11.7,4.3-19.8,14.2-22.1,25.6c-1,5-3.9,9.6-8.1,12.5
			c-12.5,8.8-18.1,25.2-12.6,40.3c0.1,0.4,0.3,0.7,0.4,1.1c2,5,1.8,10.7-0.2,15.7c-3.2,7.7-3.6,16.6-0.5,25
			c2.8,7.7,8.1,13.9,14.6,17.8c3.9,2.4,6.9,6.1,8.4,10.4c0,0.1,0.1,0.2,0.1,0.3c17.6,48.4,59.2,81,106.5,89.4
			c30.8-36.8,41.7-88.6,24.1-137c0,0,0-0.1,0-0.1c-1.6-4.3-1.7-9.1-0.2-13.5C656.9,260.8,657,252.7,654.1,244.9z"/>
		
			<path fill="none" stroke="#FFFFEB" stroke-width="9.0579" stroke-linecap="round" stroke-linejoin="round" stroke-miterlimit="10" d="
			M559,215.2c3.8,13.2,15.9,36.9,34.9,50.2"/>
		
			<path fill="#3C3845" stroke="#FFFFEB" stroke-width="9.0579" stroke-linecap="round" stroke-linejoin="round" stroke-miterlimit="10" d="
			M592.5,244.9c3.1-8.4,9.1-15,16.5-18.8c4.8-2.5,8.6-6.7,10.3-11.9c0.1-0.4,0.2-0.7,0.4-1.1c5.5-15.1,20.3-24,35.6-22.7
			c5.1,0.4,10.2-1.2,14.2-4.4c9.1-7.2,21.7-9.6,33.4-5.4c11.7,4.3,19.8,14.2,22.1,25.6c1,5,3.9,9.6,8.1,12.5
			c12.5,8.8,18.1,25.2,12.6,40.3c-0.1,0.4-0.3,0.7-0.4,1.1c-2,5-1.8,10.7,0.2,15.7c3.2,7.7,3.6,16.6,0.5,25
			c-2.8,7.7-8.1,13.9-14.6,17.8c-3.9,2.4-6.9,6.1-8.4,10.4c0,0.1-0.1,0.2-0.1,0.3c-17.6,48.4-59.2,81-106.5,89.4
			c-30.8-36.8-41.7-88.6-24.1-137c0,0,0-0.1,0-0.1c1.6-4.3,1.7-9.1,0.2-13.5C589.8,260.8,589.6,252.7,592.5,244.9z"/>
		
			<path fill="#3C3845" stroke="#FFFFEB" stroke-width="9.0579" stroke-linecap="round" stroke-linejoin="round" stroke-miterlimit="10" d="
			M490.5,374.5c-6.4-6.4-9.7-14.6-10.1-22.9c-0.3-5.4-2.5-10.6-6.5-14.4c-0.3-0.3-0.6-0.5-0.8-0.8c-11.3-11.3-13.2-28.6-5.6-41.8
			c2.6-4.5,3.2-9.7,2-14.7c-2.7-11.3,0.4-23.7,9.2-32.5c8.8-8.8,21.2-11.9,32.5-9.2c5,1.2,10.3,0.5,14.7-2
			c13.3-7.6,30.5-5.8,41.8,5.6c0.3,0.3,0.5,0.5,0.8,0.8c3.7,4,8.9,6.2,14.4,6.5c8.3,0.4,16.5,3.8,22.9,10.1
			c5.8,5.8,9.1,13.2,10,20.8c0.5,4.6,2.6,8.8,5.9,12c0.1,0.1,0.2,0.2,0.2,0.2c36.4,36.4,48.4,87.9,36,134.3
			c-46.4,12.4-97.9,0.4-134.3-36c0,0,0,0-0.1-0.1c-3.3-3.3-7.5-5.4-12.1-5.9C503.9,383.7,496.4,380.4,490.5,374.5z"/>
		
			<path fill="none" stroke="#FFFFEB" stroke-width="9.0579" stroke-linecap="round" stroke-linejoin="round" stroke-miterlimit="10" d="
			M658,426.4c-35.7-20.7-62-45.1-90.3-73.4c-20.1-20.1-38.4-42.1-54.7-66"/>
		
			<path fill="none" stroke="#FFFFEB" stroke-width="9.0579" stroke-linecap="round" stroke-linejoin="round" stroke-miterlimit="10" d="
			M691.3,207.3c0,0-8.3,47.3-37.8,84.5"/>
		<path fill="#3C3845" d="M637.4,259c6.4-6.4,14.6-9.7,22.9-10.1c5.4-0.3,10.6-2.5,14.4-6.5c0.3-0.3,0.5-0.6,0.8-0.8
			c11.3-11.3,28.6-13.2,41.8-5.6c4.5,2.6,9.7,3.2,14.7,2c11.3-2.7,23.7,0.4,32.5,9.2c8.8,8.8,11.9,21.2,9.2,32.5
			c-1.2,5-0.5,10.3,2,14.7c7.6,13.3,5.8,30.5-5.6,41.8c-0.3,0.3-0.5,0.5-0.8,0.8c-4,3.7-6.2,8.9-6.5,14.4
			c-0.4,8.3-3.8,16.5-10.1,22.9c-5.8,5.8-13.2,9.1-20.8,10c-4.6,0.5-8.8,2.6-12,5.9c-0.1,0.1-0.2,0.2-0.2,0.2
			c-36.4,36.4-87.9,48.4-134.3,36c-12.4-46.4-0.4-97.9,36-134.3c0,0,0,0,0.1-0.1c3.3-3.3,5.4-7.5,5.9-12.1
			C628.2,272.3,631.6,264.9,637.4,259z"/>
		
			<path fill="none" stroke="#FFFFEB" stroke-width="9.0579" stroke-linecap="round" stroke-linejoin="round" stroke-miterlimit="10" d="
			M588.4,426.4c35.7-20.7,67.7-45.1,96-73.4c20.1-20.1,38.4-42.1,54.7-66"/>
		
			<path fill="none" stroke="#FFFFEB" stroke-width="9.0579" stroke-linecap="round" stroke-linejoin="round" stroke-miterlimit="10" d="
			M634,396.4c11.8-11.5,21.8-28.7,19-52"/>
		
			<path fill="none" stroke="#FFFFEB" stroke-width="9.0579" stroke-linecap="round" stroke-linejoin="round" stroke-miterlimit="10" d="
			M684.4,353c9.8-10,31.6-18,44.2-15.3"/>
		
			<path fill="none" stroke="#FFFFEB" stroke-width="9.0579" stroke-linecap="round" stroke-linejoin="round" stroke-miterlimit="10" d="
			M560.7,345.8c-6.2-6.6-16.5-32.8-11.6-50.4"/>
		
			<path fill="none" stroke="#FFFFEB" stroke-width="9.0579" stroke-linecap="round" stroke-linejoin="round" stroke-miterlimit="10" d="
			M637.4,259c6.4-6.4,14.6-9.7,22.9-10.1c5.4-0.3,10.6-2.5,14.4-6.5c0.3-0.3,0.5-0.6,0.8-0.8c11.3-11.3,28.6-13.2,41.8-5.6
			c4.5,2.6,9.7,3.2,14.7,2c11.3-2.7,23.7,0.4,32.5,9.2c8.8,8.8,11.9,21.2,9.2,32.5c-1.2,5-0.5,10.3,2,14.7
			c7.6,13.3,5.8,30.5-5.6,41.8c-0.3,0.3-0.5,0.5-0.8,0.8c-4,3.7-6.2,8.9-6.5,14.4c-0.4,8.3-3.8,16.5-10.1,22.9
			c-5.8,5.8-13.2,9.1-20.8,10c-4.6,0.5-8.8,2.6-12,5.9c-0.1,0.1-0.2,0.2-0.2,0.2c-36.4,36.4-87.9,48.4-134.3,36
			c-12.4-46.4-0.4-97.9,36-134.3c0,0,0,0,0.1-0.1c3.3-3.3,5.4-7.5,5.9-12.1C628.2,272.3,631.6,264.9,637.4,259z"/>
	</g>
	<g>
		
			<path fill="#3C3845" stroke="#FFFFEB" stroke-width="8" stroke-linecap="round" stroke-linejoin="round" stroke-miterlimit="10" d="
			M315.5,311.8c2-5.6,6-9.9,10.9-12.5c3.2-1.7,5.7-4.5,6.8-7.9c0.1-0.2,0.2-0.5,0.2-0.7c3.6-10,13.4-15.9,23.5-15
			c3.4,0.3,6.7-0.8,9.4-2.9c6-4.8,14.3-6.4,22.1-3.6c7.8,2.8,13.1,9.4,14.6,16.9c0.7,3.3,2.5,6.3,5.3,8.3c8.3,5.8,12,16.7,8.4,26.6
			c-0.1,0.2-0.2,0.5-0.3,0.7c-1.3,3.3-1.2,7.1,0.1,10.4c2.1,5.1,2.4,11,0.3,16.5c-1.9,5.1-5.4,9.2-9.7,11.8c-2.6,1.6-4.5,4-5.6,6.9
			c0,0.1,0,0.1-0.1,0.2c-11.6,32-39.2,53.6-70.4,59.1c-20.4-24.3-27.6-58.6-16-90.6c0,0,0,0,0-0.1c1-2.9,1.1-6,0.1-8.9
			C313.7,322.4,313.6,317,315.5,311.8z"/>
		
			<path fill="#3C3845" stroke="#FFFFEB" stroke-width="8" stroke-linecap="round" stroke-linejoin="round" stroke-miterlimit="10" d="
			M356.2,311.8c-2-5.6-6-9.9-10.9-12.5c-3.2-1.7-5.7-4.5-6.8-7.9c-0.1-0.2-0.2-0.5-0.2-0.7c-3.6-10-13.4-15.9-23.5-15
			c-3.4,0.3-6.7-0.8-9.4-2.9c-6-4.8-14.3-6.4-22.1-3.6c-7.8,2.8-13.1,9.4-14.6,16.9c-0.7,3.3-2.5,6.3-5.3,8.3
			c-8.3,5.8-12,16.7-8.4,26.6c0.1,0.2,0.2,0.5,0.3,0.7c1.3,3.3,1.2,7.1-0.1,10.4c-2.1,5.1-2.4,11-0.3,16.5c1.9,5.1,5.4,9.2,9.7,11.8
			c2.6,1.6,4.5,4,5.6,6.9c0,0.1,0,0.1,0.1,0.2c11.6,32,39.2,53.6,70.4,59.1c20.4-24.3,27.6-58.6,16-90.6c0,0,0,0,0-0.1
			c-1-2.9-1.1-6-0.1-8.9C358,322.4,358.1,317,356.2,311.8z"/>
		
			<path fill="#3C3845" stroke="#FFFFEB" stroke-width="8" stroke-linecap="round" stroke-linejoin="round" stroke-miterlimit="10" d="
			M423.6,397.5c4.2-4.2,6.4-9.6,6.7-15.1c0.2-3.6,1.6-7,4.3-9.5c0.2-0.2,0.4-0.3,0.5-0.5c7.5-7.5,8.7-18.9,3.7-27.7
			c-1.7-2.9-2.1-6.4-1.3-9.7c1.8-7.5-0.3-15.7-6.1-21.5s-14-7.9-21.5-6.1c-3.3,0.8-6.8,0.4-9.7-1.3c-8.8-5-20.2-3.8-27.7,3.7
			c-0.2,0.2-0.4,0.4-0.5,0.5c-2.5,2.6-5.9,4.1-9.5,4.3c-5.5,0.3-10.9,2.5-15.1,6.7c-3.8,3.8-6,8.7-6.6,13.7c-0.3,3-1.7,5.8-3.9,8
			c-0.1,0.1-0.1,0.1-0.2,0.2c-24.1,24.1-32,58.1-23.8,88.8c30.7,8.2,64.8,0.3,88.8-23.8c0,0,0,0,0,0c2.2-2.2,5-3.6,8-3.9
			C414.8,403.6,419.8,401.4,423.6,397.5z"/>
		<path fill="#3C3845" d="M326.5,321.2c-4.2-4.2-9.6-6.4-15.1-6.7c-3.6-0.2-7-1.6-9.5-4.3c-0.2-0.2-0.3-0.4-0.5-0.5
			c-7.5-7.5-18.9-8.7-27.7-3.7c-2.9,1.7-6.4,2.1-9.7,1.3c-7.5-1.8-15.7,0.3-21.5,6.1s-7.9,14-6.1,21.5c0.8,3.3,0.4,6.8-1.3,9.7
			c-5,8.8-3.8,20.2,3.7,27.7c0.2,0.2,0.4,0.4,0.5,0.5c2.6,2.5,4.1,5.9,4.3,9.5c0.3,5.5,2.5,10.9,6.7,15.1c3.8,3.8,8.7,6,13.7,6.6
			c3,0.3,5.8,1.7,8,3.9c0.1,0.1,0.1,0.1,0.2,0.2c24.1,24.1,58.1,32,88.8,23.8c8.2-30.7,0.3-64.8-23.8-88.8c0,0,0,0,0,0
			c-2.2-2.2-3.6-5-3.9-8C332.6,330,330.4,325,326.5,321.2z"/>
		<path fill="none" stroke="#FFFFEB" stroke-width="8" stroke-linecap="round" stroke-linejoin="round" stroke-miterlimit="10" d="
			M266.3,373.2"/>
		<path fill="none" stroke="#FFFFEB" stroke-width="8" stroke-linecap="round" stroke-linejoin="round" stroke-miterlimit="10" d="
			M326.5,321.2c-4.2-4.2-9.6-6.4-15.1-6.7c-3.6-0.2-7-1.6-9.5-4.3c-0.2-0.2-0.3-0.4-0.5-0.5c-7.5-7.5-18.9-8.7-27.7-3.7
			c-2.9,1.7-6.4,2.1-9.7,1.3c-7.5-1.8-15.7,0.3-21.5,6.1s-7.9,14-6.1,21.5c0.8,3.3,0.4,6.8-1.3,9.7c-5,8.8-3.8,20.2,3.7,27.7
			c0.2,0.2,0.4,0.4,0.5,0.5c2.6,2.5,4.1,5.9,4.3,9.5c0.3,5.5,2.5,10.9,6.7,15.1c3.8,3.8,8.7,6,13.7,6.6c3,0.3,5.8,1.7,8,3.9
			c0.1,0.1,0.1,0.1,0.2,0.2c24.1,24.1,58.1,32,88.8,23.8c8.2-30.7,0.3-64.8-23.8-88.8c0,0,0,0,0,0c-2.2-2.2-3.6-5-3.9-8
			C332.6,330,330.4,325,326.5,321.2z"/>
	</g>
	<g>
		
			<path fill="#3C3845" stroke="#FFFFEB" stroke-width="9.0579" stroke-linecap="round" stroke-linejoin="round" stroke-miterlimit="10" d="
			M953.5,312.6c0.8-5.1-0.5-10-3.2-14c-1.7-2.6-2.5-5.8-1.9-8.8c0-0.2,0.1-0.4,0.1-0.6c1.3-9.1-3.7-17.7-11.7-21.2
			c-2.7-1.2-4.8-3.4-6-6.1c-2.6-6.1-8.3-10.8-15.4-11.8c-7.1-1.1-13.8,1.8-18.1,6.9c-1.9,2.3-4.6,3.8-7.5,4.1
			c-8.7,1-16,7.8-17.4,16.9c0,0.2-0.1,0.4-0.1,0.7c-0.4,3.1-2,5.9-4.4,7.9c-3.7,3-6.3,7.4-7.1,12.5c-0.7,4.7,0.3,9.2,2.5,13
			c1.3,2.3,1.8,4.9,1.4,7.5c0,0.1,0,0.1,0,0.2c-4.3,29.2,7.7,57,29.3,74.2c25.6-10.1,45.2-33.3,49.6-62.5c0,0,0,0,0,0
			c0.4-2.6,1.6-5.1,3.6-6.9C950.5,321.4,952.8,317.3,953.5,312.6z"/>
		
			<path fill="#3C3845" stroke="#FFFFEB" stroke-width="8" stroke-linecap="round" stroke-linejoin="round" stroke-miterlimit="10" d="
			M929,311.8c-2-5.6-6-9.9-10.9-12.5c-3.2-1.7-5.7-4.5-6.8-7.9c-0.1-0.2-0.2-0.5-0.2-0.7c-3.6-10-13.4-15.9-23.5-15
			c-3.4,0.3-6.7-0.8-9.4-2.9c-6-4.8-14.3-6.4-22.1-3.6c-7.8,2.8-13.1,9.4-14.6,16.9c-0.7,3.3-2.5,6.3-5.3,8.3
			c-8.3,5.8-12,16.7-8.4,26.6c0.1,0.2,0.2,0.5,0.3,0.7c1.3,3.3,1.2,7.1-0.1,10.4c-2.1,5.1-2.4,11-0.3,16.5c1.9,5.1,5.4,9.2,9.7,11.8
			c2.6,1.6,4.5,4,5.6,6.9c0,0.1,0,0.1,0.1,0.2c11.6,32,39.2,53.6,70.4,59.1c20.4-24.3,27.6-58.6,16-90.6c0,0,0,0,0-0.1
			c-1-2.9-1.1-6-0.1-8.9C930.7,322.4,930.8,317,929,311.8z"/>
		
			<path fill="#3C3845" stroke="#FFFFEB" stroke-width="8" stroke-linecap="round" stroke-linejoin="round" stroke-miterlimit="10" d="
			M888.2,311.8c2-5.6,6-9.9,10.9-12.5c3.2-1.7,5.7-4.5,6.8-7.9c0.1-0.2,0.2-0.5,0.2-0.7c3.6-10,13.4-15.9,23.5-15
			c3.4,0.3,6.7-0.8,9.4-2.9c6-4.8,14.3-6.4,22.1-3.6c7.8,2.8,13.1,9.4,14.6,16.9c0.7,3.3,2.5,6.3,5.3,8.3c8.3,5.8,12,16.7,8.4,26.6
			c-0.1,0.2-0.2,0.5-0.3,0.7c-1.3,3.3-1.2,7.1,0.1,10.4c2.1,5.1,2.4,11,0.3,16.5c-1.9,5.1-5.4,9.2-9.7,11.8c-2.6,1.6-4.5,4-5.6,6.9
			c0,0.1,0,0.1-0.1,0.2c-11.6,32-39.2,53.6-70.4,59.1c-20.4-24.3-27.6-58.6-16-90.6c0,0,0,0,0-0.1c1-2.9,1.1-6,0.1-8.9
			C886.4,322.4,886.3,317,888.2,311.8z"/>
		
			<path fill="#3C3845" stroke="#FFFFEB" stroke-width="8" stroke-linecap="round" stroke-linejoin="round" stroke-miterlimit="10" d="
			M820.8,397.5c-4.2-4.2-6.4-9.6-6.7-15.1c-0.2-3.6-1.6-7-4.3-9.5c-0.2-0.2-0.4-0.3-0.5-0.5c-7.5-7.5-8.7-18.9-3.7-27.7
			c1.7-2.9,2.1-6.4,1.3-9.7c-1.8-7.5,0.3-15.7,6.1-21.5c5.8-5.8,14-7.9,21.5-6.1c3.3,0.8,6.8,0.4,9.7-1.3c8.8-5,20.2-3.8,27.7,3.7
			c0.2,0.2,0.4,0.4,0.5,0.5c2.5,2.6,5.9,4.1,9.5,4.3c5.5,0.3,10.9,2.5,15.1,6.7c3.8,3.8,6,8.7,6.6,13.7c0.3,3,1.7,5.8,3.9,8
			c0.1,0.1,0.1,0.1,0.2,0.2c24.1,24.1,32,58.1,23.8,88.8c-30.7,8.2-64.8,0.3-88.8-23.8c0,0,0,0,0,0c-2.2-2.2-5-3.6-8-3.9
			C829.6,403.6,824.7,401.4,820.8,397.5z"/>
		<path fill="#3C3845" d="M917.9,321.2c4.2-4.2,9.6-6.4,15.1-6.7c3.6-0.2,7-1.6,9.5-4.3c0.2-0.2,0.3-0.4,0.5-0.5
			c7.5-7.5,18.9-8.7,27.7-3.7c2.9,1.7,6.4,2.1,9.7,1.3c7.5-1.8,15.7,0.3,21.5,6.1c5.8,5.8,7.9,14,6.1,21.5c-0.8,3.3-0.4,6.8,1.3,9.7
			c5,8.8,3.8,20.2-3.7,27.7c-0.2,0.2-0.4,0.4-0.5,0.5c-2.6,2.5-4.1,5.9-4.3,9.5c-0.3,5.5-2.5,10.9-6.7,15.1c-3.8,3.8-8.7,6-13.7,6.6
			c-3,0.3-5.8,1.7-8,3.9c-0.1,0.1-0.1,0.1-0.2,0.2c-24.1,24.1-58.1,32-88.8,23.8c-8.2-30.7-0.3-64.8,23.8-88.8c0,0,0,0,0,0
			c2.2-2.2,3.6-5,3.9-8C911.8,330,914,325,917.9,321.2z"/>
		<path fill="none" stroke="#FFFFEB" stroke-width="8" stroke-linecap="round" stroke-linejoin="round" stroke-miterlimit="10" d="
			M917.9,321.2c4.2-4.2,9.6-6.4,15.1-6.7c3.6-0.2,7-1.6,9.5-4.3c0.2-0.2,0.3-0.4,0.5-0.5c7.5-7.5,18.9-8.7,27.7-3.7
			c2.9,1.7,6.4,2.1,9.7,1.3c7.5-1.8,15.7,0.3,21.5,6.1c5.8,5.8,7.9,14,6.1,21.5c-0.8,3.3-0.4,6.8,1.3,9.7c5,8.8,3.8,20.2-3.7,27.7
			c-0.2,0.2-0.4,0.4-0.5,0.5c-2.6,2.5-4.1,5.9-4.3,9.5c-0.3,5.5-2.5,10.9-6.7,15.1c-3.8,3.8-8.7,6-13.7,6.6c-3,0.3-5.8,1.7-8,3.9
			c-0.1,0.1-0.1,0.1-0.2,0.2c-24.1,24.1-58.1,32-88.8,23.8c-8.2-30.7-0.3-64.8,23.8-88.8c0,0,0,0,0,0c2.2-2.2,3.6-5,3.9-8
			C911.8,330,914,325,917.9,321.2z"/>
	</g>
</g>
<g>
	<g>
		<path fill="#FFFFEB" d="M712,984.4c-0.6-0.6-1.5-1-2.4-1c-0.9,0-1.8,0.4-2.4,1c-15,15.7-32.7,28.1-52.4,37
			c-1.1,0.5-1.8,1.5-1.9,2.6c-0.2,1.1,0.3,2.3,1.2,3c12.3,10.3,27.7,15.9,43.7,15.9c0.9,0,1.9,0,2.8-0.1
			c17.1-0.7,33.2-7.8,45.3-19.9c1.3-1.3,1.3-3.4,0-4.7L712,984.4z"/>
		<path fill="#FFFFEB" d="M625.3,1033.2c-0.8-0.8-2-1.2-3.1-0.9c-12,2.7-24.4,4-36.7,4c-20.3,0-40.2-3.6-59.1-10.6
			c-1.6-0.6-3.4,0.1-4.2,1.7l-0.2,0.3c-0.6,1.3-0.4,2.8,0.6,3.8l20.1,20.1c12.9,12.9,29.9,19.9,48.1,19.9c18.2,0,35.3-7.1,48.1-19.9
			c1.3-1.3,1.3-3.4,0-4.7L625.3,1033.2z"/>
		<path fill="#FFFFEB" d="M522.2,879.9c0.8,1.6,2.6,2.3,4.2,1.7c18.9-7.1,38.8-10.6,59.1-10.6c48,0,93.9,20.6,126,56.5
			c0.7,0.7,1.6,1.1,2.5,1.1c0.6,0,1.3-0.2,1.9-0.6c23.1-15.4,35.9-41.8,35.9-74.5c0-1.9-1.5-3.4-3.4-3.4H585.5
			c-23.6,0-45.9,9.1-62.8,25.7c-1,1-1.3,2.6-0.7,3.9L522.2,879.9z"/>
		<g>
			<defs>
				<path id="SVGID_1_" d="M777,891l-46.7,62.7l49.4,64.9c0,0,21.5-24.9,21.5-60.4S777,891,777,891z"/>
			</defs>
			<clipPath id="SVGID_2_">
				<use xlink:href="#SVGID_1_"  overflow="visible"/>
			</clipPath>
			<path clip-path="url(#SVGID_2_)" fill="#FFFFEB" d="M768.6,894.1c-0.7-0.7-1.7-1-2.6-1c-1,0.1-1.9,0.6-2.4,1.3l-42.4,57.2
				c-0.9,1.2-0.9,2.8,0,4l42.4,57.2c0.6,0.8,1.5,1.3,2.4,1.3c0.1,0,0.2,0,0.2,0c0.9,0,1.7-0.4,2.4-1c15.9-15.9,24.7-37.1,24.7-59.6
				C793.3,931.2,784.5,910,768.6,894.1z"/>
		</g>
		
			<line fill="none" stroke="#3C3845" stroke-width="8" stroke-linecap="round" stroke-linejoin="round" stroke-miterlimit="10" x1="730.1" y1="844.9" x2="679.5" y2="895.5"/>
		
			<line fill="none" stroke="#3C3845" stroke-width="8" stroke-linecap="round" stroke-linejoin="round" stroke-miterlimit="10" x1="667.6" y1="844.9" x2="637.5" y2="875"/>
		
			<line fill="none" stroke="#3C3845" stroke-width="8" stroke-linecap="round" stroke-linejoin="round" stroke-miterlimit="10" x1="605.2" y1="844.9" x2="582.4" y2="867.6"/>
		
			<line fill="none" stroke="#3C3845" stroke-width="8" stroke-linecap="round" stroke-linejoin="round" stroke-miterlimit="10" x1="674.3" y1="1015.1" x2="715.7" y2="1056.2"/>
		
			<line fill="none" stroke="#3C3845" stroke-width="8" stroke-linecap="round" stroke-linejoin="round" stroke-miterlimit="10" x1="695.8" y1="999.7" x2="745.1" y2="1048.6"/>
		
			<line fill="none" stroke="#3C3845" stroke-width="8" stroke-linecap="round" stroke-linejoin="round" stroke-miterlimit="10" x1="558.1" y1="1037.5" x2="605.7" y2="1084.7"/>
		
			<line fill="none" stroke="#3C3845" stroke-width="8" stroke-linecap="round" stroke-linejoin="round" stroke-miterlimit="10" x1="596.8" y1="1039.3" x2="636.1" y2="1078.2"/>
		
			<ellipse fill="#FFFFEB" stroke="#3C3845" stroke-width="8" stroke-linecap="round" stroke-linejoin="round" stroke-miterlimit="10" cx="585.5" cy="953.6" rx="149.1" ry="86"/>
		
			<path fill="#FFFFEB" stroke="#3C3845" stroke-width="8" stroke-linecap="round" stroke-linejoin="round" stroke-miterlimit="10" d="
			M436.4,953.6c19.8,34.3,51.2,61.1,88.8,75.2h0c11.1-22.7,17.3-48.2,17.3-75.2c0-27-6.2-52.5-17.3-75.2
			C487.6,892.5,456.3,919.3,436.4,953.6z"/>
		<circle fill="#3C3845" cx="499.4" cy="946.3" r="11.9"/>
		<path fill="none" stroke="#3C3845" stroke-width="8" stroke-linecap="round" stroke-linejoin="round" stroke-miterlimit="10" d="
			M525.2,1028.8c11.1-22.7,17.3-48.2,17.3-75.2c0-27-6.2-52.5-17.3-75.2"/>
		<path fill="none" stroke="#3C3845" stroke-width="8" stroke-linecap="round" stroke-linejoin="round" stroke-miterlimit="10" d="
			M588.1,1038.3c4.4-9.2,12.1-12.4,15.1-22.3c2.9-9.7-4.6-22-3.1-32.3c1.5-10,12.3-19.6,12.3-30s-10.8-20-12.3-30
			c-1.5-10.3,6.1-22.5,3.1-32.3c-3-9.9-10.7-13.1-15.1-22.3"/>
		<path fill="none" stroke="#3C3845" stroke-width="8" stroke-linecap="round" stroke-linejoin="round" stroke-miterlimit="10" d="
			M653.9,1025.3c3.8-7.9,11-9.6,13.6-18.1c2.5-8.3-5.3-19.1-4-27.9c1.3-8.6,12-16.6,12-25.6c0-8.9-10.7-17-12-25.6
			c-1.3-8.8,6.6-19.6,4-27.9c-2.6-8.5-9.8-10.2-13.6-18.1"/>
		<path fill="none" stroke="#3C3845" stroke-width="8" stroke-linecap="round" stroke-linejoin="round" stroke-miterlimit="10" d="
			M777,891l-40.5,54.4c-3.6,4.9-3.6,11.6,0.1,16.4l43.2,56.7"/>
		<path fill="#FFFFEB" stroke="#3C3845" stroke-width="8" stroke-linejoin="round" stroke-miterlimit="10" d="M605.3,1029.8
			c12.3-12.3,18.4-28.4,18.4-44.5h-63L605.3,1029.8z"/>
		<g>
			
				<line fill="none" stroke="#3C3845" stroke-width="8" stroke-linecap="round" stroke-linejoin="round" stroke-miterlimit="10" x1="735.9" y1="953.6" x2="815" y2="980.2"/>
			
				<line fill="none" stroke="#3C3845" stroke-width="8" stroke-linecap="round" stroke-linejoin="round" stroke-miterlimit="10" x1="815" y1="927.1" x2="735.9" y2="953.6"/>
		</g>
	</g>
	<g>
		<g>
			<path fill="#FFFFEB" d="M290.3,949.2c-10.3,0-20.1-4-27.4-11.3c-0.8-0.8-1.2-1.8-1.2-2.8s0.4-2.1,1.2-2.8l18.2-18.2
				c0.8-0.8,1.8-1.2,2.8-1.2c0,0,0,0,0,0c1.1,0,2.1,0.5,2.8,1.2c7.9,8.2,17.1,14.7,27.4,19.4c1.3,0.6,2.1,1.7,2.3,3.1
				c0.2,1.4-0.3,2.7-1.4,3.6C308.3,946,299.4,949.2,290.3,949.2z"/>
			<path fill="#3C3845" d="M284,916.8c8.1,8.5,17.8,15.4,28.7,20.3c-6.4,5.4-14.4,8.1-22.3,8.1c-8.9,0-17.8-3.4-24.5-10.2L284,916.8
				 M284,908.8c-2.1,0-4.2,0.8-5.7,2.3l-18.2,18.2c-3.1,3.1-3.1,8.2,0,11.3c8.1,8.1,18.8,12.5,30.2,12.5c10,0,19.8-3.6,27.5-10
				c2.1-1.8,3.2-4.5,2.8-7.2c-0.4-2.7-2.1-5.1-4.6-6.2c-9.9-4.4-18.7-10.7-26.2-18.5C288.2,909.7,286.2,908.8,284,908.8
				C284,908.8,284,908.8,284,908.8L284,908.8z"/>
		</g>
		<g>
			<path fill="#FFFFEB" d="M347.7,964.5c-10.3,0-20.1-4-27.4-11.3c-0.8-0.8-1.2-1.8-1.2-2.8s0.4-2.1,1.2-2.8l7.4-7.4
				c0.8-0.8,1.8-1.2,2.8-1.2c0.3,0,0.6,0,0.9,0.1c6.3,1.4,12.8,2.1,19.2,2.1c10.6,0,21.1-1.9,30.9-5.6c0.5-0.2,0.9-0.3,1.4-0.3
				c1.5,0,2.9,0.8,3.6,2.3l0.1,0.2c0.8,1.5,0.5,3.4-0.8,4.6L375,953.2C367.7,960.5,358,964.5,347.7,964.5z"/>
			<path fill="#3C3845" d="M382.9,939.4c0,0.1,0.1,0.1,0.1,0.2l-10.8,10.8c-6.8,6.8-15.7,10.2-24.5,10.2c-8.9,0-17.8-3.4-24.5-10.2
				l7.4-7.4c6.5,1.4,13.2,2.2,20.1,2.2C362,945.2,372.9,943.1,382.9,939.4 M382.9,931.4c-0.9,0-1.9,0.2-2.8,0.5
				c-9.4,3.5-19.4,5.3-29.5,5.3c-6.2,0-12.4-0.7-18.4-2c-0.6-0.1-1.2-0.2-1.7-0.2c-2.1,0-4.1,0.8-5.7,2.3l-7.4,7.4
				c-3.1,3.1-3.1,8.2,0,11.3c8.1,8.1,18.8,12.5,30.2,12.5c11.4,0,22.1-4.4,30.2-12.5l10.8-10.8c2.4-2.4,3-6.1,1.5-9.2l0-0.1l0-0.1
				C388.8,933,385.9,931.4,382.9,931.4L382.9,931.4z"/>
		</g>
		<g>
			<path fill="#FFFFEB" d="M281.6,887.7c-0.8,0-1.5-0.2-2.2-0.7c-9.8-6.5-20.2-21.8-20.2-45.2c0-2.2,1.8-4,4-4h87.4
				c13.9,0,30,8.4,35.9,18.6c0.7,1.1,0.7,2.5,0.1,3.7l-0.1,0.1c-0.7,1.4-2.1,2.3-3.6,2.3c-0.5,0-0.9-0.1-1.4-0.2
				c-9.9-3.7-20.3-5.6-30.9-5.6c-25.2,0-49.2,10.8-65.9,29.6C283.8,887.3,282.8,887.7,281.6,887.7z"/>
			<path fill="#3C3845" d="M350.6,841.9c12.6,0,27.2,7.6,32.4,16.6c0,0,0,0.1-0.1,0.1c-10.1-3.8-21-5.8-32.3-5.8
				c-27.4,0-52,11.9-68.9,30.9c-12.5-8.3-18.4-25.8-18.4-41.8h43.9H350.6 M350.6,833.9h-43.4h-43.9c-4.4,0-8,3.6-8,8
				c0,9.4,1.8,18.7,5.2,26.9c3.9,9.4,9.7,16.9,16.9,21.6c1.4,0.9,2.9,1.3,4.4,1.3c2.2,0,4.4-0.9,6-2.7c16-17.9,39-28.2,63-28.2
				c10.2,0,20.1,1.8,29.5,5.3c0.9,0.3,1.9,0.5,2.8,0.5c3,0,5.8-1.7,7.2-4.5l0-0.1c1.2-2.4,1.1-5.2-0.2-7.5
				C383.3,843,366,833.9,350.6,833.9L350.6,833.9z"/>
		</g>
		
			<ellipse fill="#FFFFEB" stroke="#3C3845" stroke-width="8" stroke-linecap="round" stroke-linejoin="round" stroke-miterlimit="10" cx="350.6" cy="899" rx="80" ry="46.2"/>
		<circle fill="#3C3845" cx="396.8" cy="895.1" r="9.7"/>
		<g>
			<path fill="#FFFFEB" d="M239.9,933.7c-1.1,0-2.1-0.4-2.8-1.2c-18.5-18.5-18.5-48.5,0-67c0.8-0.8,1.8-1.2,2.8-1.2
				c0.1,0,0.1,0,0.2,0c1.1,0.1,2.2,0.6,2.9,1.4l25.6,30.7c1.2,1.5,1.2,3.6,0,5.1L243,932.3c-0.7,0.9-1.8,1.4-2.9,1.4
				C240,933.7,240,933.7,239.9,933.7z"/>
			<path fill="#3C3845" d="M239.9,868.3l25.6,30.7l-25.6,30.7C223,912.8,223,885.3,239.9,868.3 M239.9,860.3c-2.1,0-4.2,0.8-5.7,2.3
				c-9.7,9.7-15.1,22.6-15.1,36.3c0,13.7,5.3,26.6,15.1,36.3c1.5,1.5,3.5,2.3,5.7,2.3c0.1,0,0.2,0,0.4,0c2.2-0.1,4.3-1.1,5.8-2.9
				l25.6-30.7c2.5-3,2.5-7.3,0-10.3L246,863.2c-1.4-1.7-3.5-2.8-5.8-2.9C240.1,860.3,240,860.3,239.9,860.3L239.9,860.3z"/>
		</g>
	</g>
	<g>
		<g>
			<path fill="#FFFFEB" d="M953.1,949.2c-9.1,0-18-3.2-24.9-9.1c-1.1-0.9-1.6-2.2-1.4-3.6c0.2-1.4,1.1-2.5,2.3-3.1
				c10.3-4.7,19.5-11.2,27.4-19.4c0.7-0.8,1.8-1.2,2.8-1.2c0,0,0,0,0,0c1.1,0,2.1,0.4,2.8,1.2l18.2,18.2c1.6,1.6,1.6,4.1,0,5.7
				C973.2,945.2,963.5,949.2,953.1,949.2C953.1,949.2,953.1,949.2,953.1,949.2z"/>
			<path fill="#3C3845" d="M959.5,916.8l18.2,18.2c-6.8,6.8-15.7,10.2-24.5,10.2c-7.9,0-15.9-2.7-22.3-8.1
				C941.6,932.2,951.3,925.3,959.5,916.8 M959.5,908.8C959.4,908.8,959.4,908.8,959.5,908.8c-2.2,0-4.3,0.9-5.8,2.5
				c-7.5,7.8-16.3,14.1-26.2,18.5c-2.5,1.1-4.3,3.5-4.6,6.2c-0.4,2.7,0.7,5.4,2.8,7.2c7.7,6.5,17.4,10,27.5,10
				c11.4,0,22.1-4.4,30.2-12.5c3.1-3.1,3.1-8.2,0-11.3l-18.2-18.2C963.6,909.6,961.6,908.8,959.5,908.8L959.5,908.8z"/>
		</g>
		<g>
			<path fill="#FFFFEB" d="M895.8,964.5c-10.3,0-20.1-4-27.4-11.3l-10.8-10.8c-1.2-1.2-1.5-3-0.8-4.5l0.1-0.2
				c0.7-1.4,2.1-2.2,3.6-2.2c0.5,0,0.9,0.1,1.4,0.3c9.9,3.7,20.3,5.6,30.9,5.6c6.5,0,13-0.7,19.2-2.1c0.3-0.1,0.6-0.1,0.9-0.1
				c1,0,2.1,0.4,2.8,1.2l7.4,7.4c1.6,1.6,1.6,4.1,0,5.7C915.8,960.5,906.1,964.5,895.8,964.5z"/>
			<path fill="#3C3845" d="M860.5,939.4c10.1,3.8,21,5.8,32.3,5.8c6.9,0,13.6-0.8,20.1-2.2l7.4,7.4c-6.8,6.8-15.7,10.2-24.5,10.2
				c-8.9,0-17.8-3.4-24.5-10.2l-10.8-10.8C860.4,939.5,860.5,939.4,860.5,939.4 M860.5,931.4c-3,0-5.8,1.7-7.2,4.5l0,0.1l0,0.1
				c-1.5,3.1-0.9,6.8,1.5,9.2l10.8,10.8c8.1,8.1,18.8,12.5,30.2,12.5s22.1-4.4,30.2-12.5c3.1-3.1,3.1-8.2,0-11.3l-7.4-7.4
				c-1.5-1.5-3.6-2.3-5.7-2.3c-0.6,0-1.2,0.1-1.7,0.2c-6,1.3-12.2,2-18.4,2c-10.2,0-20.1-1.8-29.5-5.3
				C862.4,931.5,861.4,931.4,860.5,931.4L860.5,931.4z"/>
		</g>
		<g>
			<path fill="#FFFFEB" d="M961.8,887.7c-1.1,0-2.2-0.5-3-1.3c-16.8-18.8-40.8-29.6-66-29.6c-10.6,0-21.1,1.9-30.9,5.6
				c-0.5,0.2-0.9,0.3-1.4,0.3c-1.5,0-2.9-0.8-3.6-2.3c-0.6-1.2-0.6-2.7,0.1-3.9c5.9-10.3,22-18.6,35.9-18.6h87.4c2.2,0,4,1.8,4,4
				c0,23.4-10.5,38.7-20.2,45.2C963.3,887.5,962.6,887.7,961.8,887.7z"/>
			<path fill="#3C3845" d="M980.2,841.9c0,16.1-6,33.6-18.4,41.8c-16.9-19-41.5-30.9-68.9-30.9c-11.4,0-22.3,2.1-32.3,5.8
				c0,0,0-0.1-0.1-0.1c5.2-9,19.8-16.6,32.4-16.6h43.4H980.2 M980.2,833.9h-43.9h-43.4c-15.4,0-32.7,9.1-39.4,20.7
				c-1.3,2.3-1.4,5.1-0.2,7.5c0,0,0,0,0,0l0,0.1c1.4,2.8,4.2,4.5,7.2,4.5c0.9,0,1.9-0.2,2.8-0.5c9.4-3.5,19.4-5.3,29.5-5.3
				c24,0,47,10.3,63,28.2c1.6,1.8,3.8,2.7,6,2.7c1.5,0,3.1-0.4,4.4-1.3c7.2-4.8,13-12.2,16.9-21.6c3.4-8.2,5.2-17.5,5.2-26.9
				C988.2,837.5,984.7,833.9,980.2,833.9L980.2,833.9z"/>
		</g>
		
			<ellipse fill="#FFFFEB" stroke="#3C3845" stroke-width="8" stroke-linecap="round" stroke-linejoin="round" stroke-miterlimit="10" cx="892.8" cy="899" rx="80" ry="46.2"/>
		<circle fill="#3C3845" cx="846.7" cy="895.1" r="9.7"/>
		<g>
			<path fill="#FFFFEB" d="M1003.4,933.7c-1.1-0.1-2.2-0.6-2.9-1.4l-25.6-30.7c-1.2-1.5-1.2-3.6,0-5.1l25.6-30.7
				c0.7-0.9,1.8-1.4,2.9-1.4c0.1,0,0.1,0,0.2,0c1.1,0,2.1,0.4,2.8,1.2c18.5,18.5,18.5,48.5,0,67c-0.8,0.8-1.8,1.2-2.8,1.2
				C1003.5,933.7,1003.4,933.7,1003.4,933.7z"/>
			<path fill="#3C3845" d="M1003.5,868.3c16.9,16.9,16.9,44.4,0,61.4L977.9,899L1003.5,868.3 M1003.5,860.3c-0.1,0-0.2,0-0.4,0
				c-2.2,0.1-4.3,1.1-5.8,2.9l-25.6,30.7c-2.5,3-2.5,7.3,0,10.3l25.6,30.7c1.4,1.7,3.5,2.8,5.8,2.9c0.1,0,0.2,0,0.4,0
				c2.1,0,4.2-0.8,5.7-2.3c20-20,20-52.6,0-72.7C1007.7,861.2,1005.6,860.3,1003.5,860.3L1003.5,860.3z"/>
		</g>
	</g>
</g>
<g>
	<path fill="#FFFFEB" d="M232.8,536.6v17.8h-28.5v85.6h-21v-85.6h-28.5v-17.8H232.8z"/>
	<path fill="#FFFFEB" d="M299.9,640.1h-19.9l-23.7-103.5h22.5l13.8,68.1l19.6-68.1h18.9l20.2,68.5l13.6-68.5h22.6l-23.8,103.5h-20.1
		l-21.9-71.2L299.9,640.1z"/>
	<path fill="#FFFFEB" d="M433.4,640.1h-21V536.6h21V640.1z"/>
	<path fill="#FFFFEB" d="M542.3,536.6v103.5h-17.5l-40.3-64v64h-19.9V536.6h17.4l40.5,64.9v-64.9H542.3z"/>
	<path fill="#FFFFEB" d="M684.9,568.7c-1.9-9.7-7.6-15.7-17.8-15.7c-12.1,0-18.6,8.2-18.6,28v14.7c0,19.2,6.5,28,18.6,28
		c10.5,0,15.6-5.3,17.8-15.7h19.9c-3.4,23.2-16.5,33.4-37.8,33.4c-23.2,0-39.6-14.1-39.6-45.7V581c0-31.9,16.3-45.7,39.6-45.7
		c20.5,0,34.5,10.8,37.9,33.4H684.9z"/>
	<path fill="#FFFFEB" d="M748.4,640.1h-21V536.6h21V640.1z"/>
	<path fill="#FFFFEB" d="M854.4,536.6v17.8h-28.5v85.6h-21v-85.6h-28.5v-17.8H854.4z"/>
	<path fill="#FFFFEB" d="M903.5,640.1h-21V536.6h21V640.1z"/>
	<path fill="#FFFFEB" d="M996,536.6v17.8h-43.5v23.2h39v17.7h-39v27H996v17.7h-64.5V536.6H996z"/>
	<path fill="#FFFFEB" d="M1073.6,563.5c-4.5-7-9.9-10.5-20.4-10.5c-9.5,0-14.5,4.3-14.5,11.4c0,8.1,6.6,11.7,20.4,15.1
		c21.6,5.4,31.3,13.5,31.3,31.8c0,16.9-11.4,30.1-35.7,30.1c-18.1,0-30.7-4.9-39.9-16.9l16-11.1c5.5,6.9,11.8,10.3,22.5,10.3
		c12,0,16-5.3,16-11.5c0-7.2-4.3-11.2-21.1-15.6c-20.4-5.4-30.6-15.1-30.6-32.2c0-16.3,10.8-29.1,35.4-29.1
		c16.5,0,28.9,5.5,36.3,16.9L1073.6,563.5z"/>
	<path fill="#FFFFEB" d="M152.1,772.3l36-103.5h20.1l36,103.5h-22.3l-6.3-19.6h-34.6l-6.3,19.6H152.1z M186.4,735h23.4l-11.7-36.4
		L186.4,735z"/>
	<path fill="#FFFFEB" d="M333,752.7l14.4,12.3l-11.1,13.2l-13.9-11.8c-6.6,5-14.8,7.3-24.4,7.3c-23.2,0-39.6-14.1-39.6-45.7v-14.7
		c0-31.9,16.3-45.7,39.6-45.7c23.4,0,39.7,13.8,39.7,45.7v14.7C337.6,738,336,746.1,333,752.7z M279.3,727.9c0,19.8,6.4,28,18.6,28
		c3.6,0,6.9-0.8,9.4-2.4l-11.7-10l11.4-13.3l8.8,7.8c0.4-3,0.8-6.3,0.8-10v-14.7c0-19.8-6.6-28-18.7-28c-12.1,0-18.6,8.3-18.6,28
		V727.9z"/>
	<path fill="#FFFFEB" d="M445.9,668.8v61.5c0,30.6-16.8,43.3-39.7,43.3c-22.9,0-39.7-12.7-39.7-43.2v-61.6h21v61.6
		c0,17.7,5.8,25.5,18.7,25.5c12.9,0,18.7-7.8,18.7-25.5v-61.6H445.9z"/>
	<path fill="#FFFFEB" d="M460,772.3l36-103.5h20.1l36,103.5h-22.3l-6.3-19.6h-34.6l-6.3,19.6H460z M494.4,735h23.4l-11.7-36.4
		L494.4,735z"/>
	<path fill="#FFFFEB" d="M593.4,735.9v36.4h-21V668.8h37c23.8,0,38.7,11,38.7,33.1c0,21.9-14.7,33.9-38.7,33.9H593.4z M606.4,718.2
		c14.5,0,20.7-5.1,20.7-16.2c0-9.9-6.2-15.3-20.7-15.3h-13v31.5H606.4z"/>
	<path fill="#FFFFEB" d="M707.8,773.7c-23.2,0-39.6-14.1-39.6-45.7v-14.7c0-31.9,16.3-45.7,39.6-45.7c23.4,0,39.7,13.8,39.7,45.7
		v14.7C747.6,759.6,731.2,773.7,707.8,773.7z M689.2,727.9c0,19.8,6.5,28,18.6,28s18.7-8.2,18.7-28v-14.7c0-19.8-6.6-28-18.7-28
		s-18.6,8.3-18.6,28V727.9z"/>
	<path fill="#FFFFEB" d="M853.2,668.8v103.5h-17.5l-40.3-64v64h-19.9V668.8h17.4l40.5,64.9v-64.9H853.2z"/>
	<path fill="#FFFFEB" d="M897.7,772.3h-21V668.8h21V772.3z"/>
	<path fill="#FFFFEB" d="M975.4,700.9c-1.9-9.7-7.6-15.7-17.8-15.7c-12.1,0-18.6,8.3-18.6,28v14.7c0,19.2,6.5,28,18.6,28
		c10.5,0,15.6-5.3,17.8-15.7h19.9c-3.4,23.2-16.5,33.4-37.8,33.4c-23.2,0-39.6-14.1-39.6-45.7v-14.7c0-31.9,16.3-45.7,39.6-45.7
		c20.5,0,34.5,10.8,37.9,33.4H975.4z"/>
	<path fill="#FFFFEB" d="M1074.6,695.7c-4.5-7-9.9-10.5-20.4-10.5c-9.5,0-14.5,4.3-14.5,11.4c0,8.1,6.6,11.7,20.4,15.1
		c21.6,5.4,31.3,13.5,31.3,31.8c0,16.9-11.4,30.1-35.7,30.1c-18.1,0-30.7-4.9-39.9-16.9l16-11.1c5.5,6.9,11.8,10.3,22.5,10.3
		c12,0,16-5.3,16-11.5c0-7.2-4.3-11.3-21.1-15.6c-20.4-5.4-30.6-15.1-30.6-32.2c0-16.3,10.8-29.1,35.4-29.1
		c16.5,0,28.9,5.5,36.3,16.9L1074.6,695.7z"/>
</g>
<path fill="none" stroke="#FFFFEB" stroke-width="9.0579" stroke-linecap="round" stroke-linejoin="round" stroke-miterlimit="10" d="
	M903.5,417c18-14.5,44.4-38.2,61.9-65.3"/>
<path fill="none" stroke="#FFFFEB" stroke-width="9.0579" stroke-linecap="round" stroke-linejoin="round" stroke-miterlimit="10" d="
	M334.1,409.7c-5.5-3.9-51.9-33-63.5-65.2"/>
<path fill="none" stroke="#3C3845" stroke-width="8" stroke-linecap="round" stroke-linejoin="round" stroke-miterlimit="10" d="
	M380.8,938.8c-5.8-12-9.1-25.5-9.1-39.8s3.3-27.8,9.1-39.8"/>
<path fill="none" stroke="#3C3845" stroke-width="8" stroke-linecap="round" stroke-linejoin="round" stroke-miterlimit="10" d="
	M862.7,938.8c5.8-12,9.1-25.5,9.1-39.8s-3.3-27.8-9.1-39.8"/>
<path fill="none" stroke="#FFFFEB" stroke-width="9.0579" stroke-linecap="round" stroke-linejoin="round" stroke-miterlimit="10" d="
	M364.2,395.9c14.2-13.2,29.5-29.5,40.9-47.2"/>
<path fill="none" stroke="#FFFFEB" stroke-width="9.0579" stroke-linecap="round" stroke-linejoin="round" stroke-miterlimit="10" d="
	M880.1,395.9c-14.2-13.2-29.5-29.5-40.9-47.2"/>
<path fill="#FFFFEB" stroke="#3C3845" stroke-width="8" stroke-linejoin="round" stroke-miterlimit="10" d="M887.9,913.4
	c1.6,1.9,5.4,6.2,11.9,8c1.6,0.4,7.1,2,13-0.3c2.2-0.9,5.1-1.9,5.6-4.4c0.5-2.2-0.8-4.7-3.3-6.5"/>
<path fill="#FFFFEB" stroke="#3C3845" stroke-width="8" stroke-linejoin="round" stroke-miterlimit="10" d="M357.4,914
	c-1.6,1.9-5.4,6.2-11.9,8c-1.6,0.4-7.1,2-13-0.3c-2.2-0.9-5.1-1.9-5.6-4.4c-0.5-2.2,0.8-4.7,3.3-6.5"/>
</svg>
